:SAMPLES-PER-SECOND 30
:FULLY-SPECIFIED
:DEGREES
638
root  -53.5828 38.315 0.920912 -151.554 -84.6035 139.278
RightUpLeg  4.03083 -1.0977 -9.78542
RightLeg  55.1934 6.31033 9.25877
RightFoot  -4.6863 -0.999666 17.8248
RightToes  -2.21189e-009 0 -3.6325e-017
Spine  4.63908 1.12446 -0.0524979
Spine1  9.87277 1.61714 -4.30097
HEad  -6.6348 3.30117 -2.4559
LeftShoulder1  0.521369 1.73364 -23.1301
LeftArm  -12.268 -17.3963 -37.2285
LeftForeArm  -1.73751 -64.1079 -24.5214
LeftHand  -0.0289152 4.31211 0.169127
RightShoulder  0.188837 -2.73991 18.9789
RightArm  -4.45928 23.9246 44.6062
RightForeArm  -16.0623 62.8417 24.4043
RightHand  -0.143687 0.402091 -2.9436
LeftUpLeg  -14.4934 4.49915 -4.73494
LeftLeg  20.0933 -1.35493 -0.28747
LeftFoot  6.27345 -0.917262 5.66244
LeftToes  -4.03379e-008 1.61488e-010 -5.81581e-011
639
root  -54.2216 38.3425 1.04568 -153.669 -83.2156 141.137
RightUpLeg  -2.0603 0.468282 -11.0424
RightLeg  63.1223 5.17902 10.3998
RightFoot  2.72016 -1.77615 14.2922
RightToes  -2.21189e-009 0 -3.6325e-017
Spine  6.82233 1.39136 -1.26574
Spine1  9.40273 1.6418 -4.32633
HEad  -8.88087 3.95086 -3.05572
LeftShoulder1  0.520487 1.73459 -23.1558
LeftArm  -12.8649 -19.8259 -36.5461
LeftForeArm  -3.89328 -61.9831 -22.2994
LeftHand  -0.0286738 4.56673 0.0948504
RightShoulder  0.275583 -2.36804 18.1431
RightArm  -3.12548 28.2401 45.6632
RightForeArm  -20.5143 58.8249 20.695
RightHand  -0.163704 1.15836 -3.02
LeftUpLeg  -13.8299 5.6354 -5.36156
LeftLeg  21.5012 -0.915649 -0.180542
LeftFoot  4.52932 -0.847699 5.87783
LeftToes  -4.03379e-008 1.61488e-010 -5.81581e-011
640
root  -54.8617 38.5378 1.17096 -157.976 -82.9388 145.757
RightUpLeg  -7.06824 0.682991 -11.2567
RightLeg  67.029 3.60855 8.68103
RightFoot  0.171867 -1.3832 13.6703
RightToes  -2.21189e-009 0 -3.6325e-017
Spine  8.02314 1.26235 -0.592046
Spine1  8.93003 1.75744 -5.20262
HEad  -10.1007 3.84514 -2.97644
LeftShoulder1  0.674632 1.12547 -21.9718
LeftArm  -13.3355 -21.9877 -36.7616
LeftForeArm  -5.85096 -59.4934 -20.1156
LeftHand  -0.0236793 4.51339 0.446533
RightShoulder  0.348991 -2.05523 17.8216
RightArm  -2.28656 31.9112 46.2655
RightForeArm  -23.6011 54.9322 17.9076
RightHand  -0.160604 1.49852 -2.86005
LeftUpLeg  -12.917 6.16862 -5.12107
LeftLeg  21.3799 -0.896188 -0.257949
LeftFoot  3.42336 -0.827185 6.21844
LeftToes  -4.03379e-008 1.61488e-010 -5.81581e-011
641
root  -55.4409 38.7702 1.27085 -161.821 -83.465 149.95
RightUpLeg  -11.0754 0.0521944 -10.9918
RightLeg  67.3144 2.78352 6.66548
RightFoot  -0.431343 -1.1406 11.8847
RightToes  -2.21189e-009 0 -3.6325e-017
Spine  8.64291 1.02937 0.119436
Spine1  9.36389 1.66391 -5.19779
HEad  -11.5468 3.12976 -3.13835
LeftShoulder1  0.77703 0.745471 -21.7855
LeftArm  -13.485 -25.5044 -36.9702
LeftForeArm  -7.77218 -56.3094 -17.7456
LeftHand  -0.0274359 4.86171 0.182599
RightShoulder  0.343641 -2.03813 17.143
RightArm  -2.16282 35.5036 46.7416
RightForeArm  -25.7977 50.9098 15.5838
RightHand  -0.0915109 1.93792 -1.61719
LeftUpLeg  -11.8955 6.69688 -4.55588
LeftLeg  20.7701 -1.67248 -0.677273
LeftFoot  2.70914 -0.829019 6.58403
LeftToes  -4.03379e-008 1.61488e-010 -5.81581e-011
642
root  -55.9843 39.0345 1.33858 -165.35 -83.9685 154.258
RightUpLeg  -14.6155 -0.330266 -10.5084
RightLeg  64.4413 2.31222 4.7135
RightFoot  -0.876443 -0.931723 10.0774
RightToes  -2.21189e-009 0 -3.6325e-017
Spine  9.2012 0.654799 -0.0231564
Spine1  8.85431 1.18098 -4.2884
HEad  -12.4705 3.07172 -3.18659
LeftShoulder1  0.818753 0.56856 -21.5009
LeftArm  -13.9922 -27.9612 -37.0367
LeftForeArm  -9.34186 -53.485 -16.0062
LeftHand  -0.0271449 4.92848 0.149123
RightShoulder  0.458188 -1.501 16.3938
RightArm  -1.27393 38.9082 47.4129
RightForeArm  -28.8344 46.4242 13.4935
RightHand  -0.101484 2.10758 -1.74819
LeftUpLeg  -11.059 6.91951 -3.99128
LeftLeg  19.4457 -2.19248 -1.04664
LeftFoot  2.44757 -0.827279 6.70968
LeftToes  -4.03379e-008 1.61488e-010 -5.81581e-011
643
root  -56.4824 39.2737 1.39029 -167.826 -84.2944 157.327
RightUpLeg  -16.6025 0.352256 -10.027
RightLeg  58.3049 1.96616 2.98792
RightFoot  -2.26294 -0.76261 9.39327
RightToes  -2.21189e-009 0 -3.6325e-017
Spine  9.98543 0.381857 0.301735
Spine1  8.44196 1.02966 -4.25686
HEad  -13.4715 2.77215 -2.90905
LeftShoulder1  0.931377 0.110908 -21.0364
LeftArm  -14.2875 -30.348 -36.887
LeftForeArm  -10.8987 -50.9791 -14.6924
LeftHand  -0.0266314 4.97362 0.139412
RightShoulder  0.536327 -1.0644 15.3489
RightArm  -0.560956 42.0986 47.9439
RightForeArm  -31.8575 42.1778 11.8688
RightHand  -0.143045 2.42877 -2.32427
LeftUpLeg  -10.0335 7.13352 -3.53259
LeftLeg  17.9662 -2.58108 -1.49115
LeftFoot  2.50769 -0.892253 7.21198
LeftToes  -4.03379e-008 1.61488e-010 -5.81581e-011
644
root  -56.9464 39.4413 1.38975 -168.804 -84.7467 159.426
RightUpLeg  -17.81 1.18369 -9.70327
RightLeg  49.6545 1.65765 1.76401
RightFoot  -3.25428 -0.672102 9.18627
RightToes  -2.21189e-009 0 -3.6325e-017
Spine  10.1174 0.0905176 0.602716
Spine1  8.20344 0.947957 -4.65842
HEad  -14.6209 2.51038 -2.23305
LeftShoulder1  0.990064 -0.190011 -20.3333
LeftArm  -14.0998 -33.1035 -36.8424
LeftForeArm  -12.9913 -48.4138 -13.5365
LeftHand  -0.0283063 5.23529 0.461013
RightShoulder  0.578224 -0.7546 14.2735
RightArm  0.301052 45.2803 48.2503
RightForeArm  -34.5966 38.0372 10.5003
RightHand  -0.149943 2.51278 -2.41015
LeftUpLeg  -9.97617 6.87359 -3.22419
LeftLeg  17.0701 -2.79054 -1.77838
LeftFoot  2.35529 -0.902846 7.38727
LeftToes  -4.03379e-008 1.61488e-010 -5.81581e-011
645
root  -57.3903 39.5662 1.35299 -165.682 -85.6337 156.966
RightUpLeg  -16.9641 2.33217 -9.69157
RightLeg  39.096 1.65436 1.13812
RightFoot  -3.88231 -0.649376 9.53164
RightToes  -2.21189e-009 0 -3.6325e-017
Spine  10.638 -0.26058 0.372058
Spine1  8.0093 0.667769 -4.70366
HEad  -15.2733 2.14977 -1.84932
LeftShoulder1  1.05468 -0.522667 -19.7195
LeftArm  -13.5164 -36.0299 -36.3521
LeftForeArm  -14.8277 -45.845 -12.4885
LeftHand  -0.0297859 5.44045 0.549031
RightShoulder  0.604184 -0.57011 13.772
RightArm  0.79119 48.2828 48.1621
RightForeArm  -35.5694 34.1979 9.33055
RightHand  -0.0718021 3.08053 -1.22095
LeftUpLeg  -9.65447 5.55678 -3.39246
LeftLeg  16.3205 -2.43721 -1.46027
LeftFoot  2.26693 -0.875814 7.21459
LeftToes  -4.03379e-008 1.61488e-010 -5.81581e-011
